<?xml version="1.0" encoding="UTF-8" standalone="no"?>
<!-- Created with Inkscape (http://www.inkscape.org/) -->

<svg
   xmlns:dc="http://purl.org/dc/elements/1.1/"
   xmlns:cc="http://creativecommons.org/ns#"
   xmlns:rdf="http://www.w3.org/1999/02/22-rdf-syntax-ns#"
   xmlns:svg="http://www.w3.org/2000/svg"
   xmlns="http://www.w3.org/2000/svg"
   xmlns:sodipodi="http://sodipodi.sourceforge.net/DTD/sodipodi-0.dtd"
   xmlns:inkscape="http://www.inkscape.org/namespaces/inkscape"
   width="16"
   height="16"
   viewBox="0 0 16 15.999999"
   id="svg2"
   version="1.1"
   inkscape:version="0.91 r13725"
   sodipodi:docname="favicon.svg">
  <defs
     id="defs4" />
  <sodipodi:namedview
     id="base"
     pagecolor="#ffffff"
     bordercolor="#666666"
     borderopacity="1.0"
     inkscape:pageopacity="0.0"
     inkscape:pageshadow="2"
     inkscape:zoom="7.9195959"
     inkscape:cx="-0.65145504"
     inkscape:cy="-5.5163269"
     inkscape:document-units="px"
     inkscape:current-layer="layer1"
     showgrid="false"
     fit-margin-top="0"
     fit-margin-left="0"
     fit-margin-right="0"
     fit-margin-bottom="0"
     units="px"
     inkscape:window-width="1600"
     inkscape:window-height="881"
     inkscape:window-x="0"
     inkscape:window-y="19"
     inkscape:window-maximized="0">
    <inkscape:grid
       type="xygrid"
       id="grid4138"
       originx="-281.30089"
       originy="-821.03136" />
  </sodipodi:namedview>
  <metadata
     id="metadata7">
    <rdf:RDF>
      <cc:Work
         rdf:about="">
        <dc:format>image/svg+xml</dc:format>
        <dc:type
           rdf:resource="http://purl.org/dc/dcmitype/StillImage" />
        <dc:title></dc:title>
      </cc:Work>
    </rdf:RDF>
  </metadata>
  <g
     inkscape:label="Capa 1"
     inkscape:groupmode="layer"
     id="layer1"
     transform="translate(-281.30089,-215.33081)">
    <rect
       style="opacity:1;fill:#fdf6e3;fill-opacity:1;stroke:none;stroke-width:1.09599996;stroke-miterlimit:4;stroke-dasharray:none;stroke-opacity:1"
       id="rect4210"
       width="16"
       height="16"
       x="281.3009"
       y="215.33081" />
    <path
       style="fill:#002b36;fill-opacity:1;fill-rule:evenodd;stroke:#002b36;stroke-width:0.38296649;stroke-linecap:butt;stroke-linejoin:miter;stroke-miterlimit:4;stroke-dasharray:none;stroke-opacity:1"
       d="m 287.69606,224.86104 c -0.30688,0.003 -0.63359,0.0181 -0.96832,0.041 -0.33473,0.0229 -0.6775,0.0537 -1.01619,0.0896 -0.0541,0.006 -0.10705,0.0122 -0.16092,0.0182 -1.80926,2.64331 -3.64673,5.78453 -1.47117,5.76331 3.27769,-0.032 7.18451,-0.032 10.40463,0 2.17645,0.0216 0.33308,-3.1449 -1.47288,-5.79472 -0.14702,0.0503 -0.29661,0.10036 -0.44943,0.14789 -0.21842,0.0679 -0.4401,0.13134 -0.65779,0.18592 -0.2177,0.0546 -0.43128,0.10025 -0.63344,0.1325 -0.20215,0.0323 -0.3928,0.0512 -0.56462,0.0521 -0.7482,0.004 -1.41562,-0.54086 -2.16081,-0.60801 -0.25513,-0.023 -0.54218,-0.0311 -0.84906,-0.0278 z"
       id="path4136-3"
       inkscape:connector-curvature="0" />
    <path
       style="fill:none;fill-rule:evenodd;stroke:#002b36;stroke-width:0.38296649;stroke-linecap:butt;stroke-linejoin:miter;stroke-miterlimit:4;stroke-dasharray:none;stroke-opacity:1"
       d="m 287.93413,216.06276 c -0.56606,-0.0103 -0.019,4.91356 0,5.41447 0.0225,0.59316 -7.47619,9.33119 -3.85472,9.29587 3.27769,-0.032 7.18456,-0.032 10.40468,0 3.60866,0.0358 -3.83345,-8.70259 -3.83345,-9.29587 0,-0.50091 0.5471,-5.42477 0,-5.41447 -0.54709,0.0103 -2.18836,0.01 -2.71651,0 z"
       id="path4136"
       inkscape:connector-curvature="0"
       sodipodi:nodetypes="sssssss" />
  </g>
</svg>
