<?xml version="1.0" encoding="UTF-8" standalone="no"?>
<!-- Created with Inkscape (http://www.inkscape.org/) -->

<svg
   xmlns:dc="http://purl.org/dc/elements/1.1/"
   xmlns:cc="http://creativecommons.org/ns#"
   xmlns:rdf="http://www.w3.org/1999/02/22-rdf-syntax-ns#"
   xmlns:svg="http://www.w3.org/2000/svg"
   xmlns="http://www.w3.org/2000/svg"
   xmlns:sodipodi="http://sodipodi.sourceforge.net/DTD/sodipodi-0.dtd"
   xmlns:inkscape="http://www.inkscape.org/namespaces/inkscape"
   width="96"
   height="96"
   viewBox="0 0 96.000003 95.999992"
   id="svg2"
   version="1.1"
   inkscape:version="0.91 r13725"
   sodipodi:docname="site-logo.svg">
  <defs
     id="defs4" />
  <sodipodi:namedview
     id="base"
     pagecolor="#ffffff"
     bordercolor="#666666"
     borderopacity="1.0"
     inkscape:pageopacity="0.0"
     inkscape:pageshadow="2"
     inkscape:zoom="4.6979167"
     inkscape:cx="20.454761"
     inkscape:cy="66.019528"
     inkscape:document-units="px"
     inkscape:current-layer="layer1"
     showgrid="false"
     fit-margin-top="0"
     fit-margin-left="0"
     fit-margin-right="0"
     fit-margin-bottom="0"
     units="px"
     inkscape:window-width="1600"
     inkscape:window-height="881"
     inkscape:window-x="0"
     inkscape:window-y="19"
     inkscape:window-maximized="0">
    <inkscape:grid
       type="xygrid"
       id="grid4138"
       originx="-257.8796"
       originy="-796.82804" />
  </sodipodi:namedview>
  <metadata
     id="metadata7">
    <rdf:RDF>
      <cc:Work
         rdf:about="">
        <dc:format>image/svg+xml</dc:format>
        <dc:type
           rdf:resource="http://purl.org/dc/dcmitype/StillImage" />
        <dc:title></dc:title>
      </cc:Work>
    </rdf:RDF>
  </metadata>
  <g
     inkscape:label="Capa 1"
     inkscape:groupmode="layer"
     id="layer1"
     transform="translate(-257.87958,-159.53409)">
    <rect
       style="opacity:1;fill:#fdf6e3;fill-opacity:1;stroke:none;stroke-width:1.09599996;stroke-miterlimit:4;stroke-dasharray:none;stroke-opacity:1"
       id="rect4515"
       width="96"
       height="96"
       x="257.87958"
       y="159.53409" />
    <g
       id="g4420"
       transform="matrix(1.331,0,0,1.331,-101.24614,-68.693781)">
      <path
         inkscape:connector-curvature="0"
         id="path4136-3"
         d="m 299.82791,213.04266 c -1.17144,0.0126 -2.41856,0.0692 -3.69632,0.15663 -1.27777,0.0874 -2.5862,0.20517 -3.87906,0.34181 -0.20661,0.0219 -0.40865,0.0466 -0.61429,0.0693 -6.90644,10.09023 -13.92057,22.08108 -5.61586,22.00008 12.51183,-0.12203 27.42523,-0.12203 39.71731,0 8.30808,0.0825 1.27143,-12.00493 -5.62239,-22.12 -0.56121,0.1921 -1.13226,0.38311 -1.7156,0.56452 -0.83378,0.2593 -1.67999,0.50139 -2.51099,0.70973 -0.83099,0.20835 -1.6463,0.38267 -2.41798,0.50579 -0.77168,0.12312 -1.49945,0.19529 -2.15531,0.19905 -2.85608,0.0158 -5.4038,-2.06459 -8.2484,-2.32091 -0.9739,-0.0877 -2.06967,-0.11862 -3.24111,-0.10605 z"
         style="fill:#002b36;fill-opacity:1;fill-rule:evenodd;stroke:#073642;stroke-width:1.46188664;stroke-linecap:butt;stroke-linejoin:miter;stroke-miterlimit:4;stroke-dasharray:none;stroke-opacity:1" />
      <path
         sodipodi:nodetypes="sssssss"
         inkscape:connector-curvature="0"
         id="path4136"
         d="m 300.73671,179.45724 c -2.16081,-0.0393 -0.0724,18.75638 0,20.66848 0.0857,2.26426 -28.53866,35.61969 -14.71451,35.48486 12.51183,-0.12203 27.42541,-0.12203 39.71749,0 13.77522,0.13675 -14.63333,-33.22014 -14.63333,-35.48486 0,-1.9121 2.08841,-20.70778 0,-20.66848 -2.08841,0.0393 -8.35359,0.0367 -10.36965,0 z"
         style="fill:none;fill-rule:evenodd;stroke:#073642;stroke-width:1.46188664;stroke-linecap:butt;stroke-linejoin:miter;stroke-miterlimit:4;stroke-dasharray:none;stroke-opacity:1" />
      <path
         d="m 289.33074,222.00922 0,-1.375 0.385,0 q 0,0.03 -0.025,0.07 -0.025,0.035 -0.025,0.07 l 0.005,2.975 q 0,0.12 0.025,0.21 l -0.36,0 q -0.02,-0.06 -0.02,-0.17 l 0,-0.195 q -0.11,0.19 -0.3,0.305 -0.19,0.11 -0.385,0.11 -0.19,0 -0.36,-0.075 -0.165,-0.075 -0.295,-0.225 -0.125,-0.15 -0.2,-0.375 -0.075,-0.23 -0.075,-0.54 0,-0.315 0.085,-0.535 0.085,-0.225 0.22,-0.365 0.14,-0.145 0.31,-0.21 0.17,-0.07 0.345,-0.07 0.24,0 0.41,0.11 0.175,0.105 0.26,0.285 z m -1.065,0.07 q -0.215,0.195 -0.215,0.66 0,0.43 0.165,0.695 0.165,0.26 0.485,0.26 0.075,0 0.16,-0.025 0.085,-0.03 0.16,-0.085 0.075,-0.055 0.135,-0.13 0.06,-0.075 0.09,-0.17 0.055,-0.18 0.055,-0.48 0,-0.19 -0.015,-0.315 -0.015,-0.13 -0.05,-0.22 -0.03,-0.09 -0.08,-0.145 -0.05,-0.06 -0.125,-0.105 -0.09,-0.055 -0.17,-0.08 -0.075,-0.03 -0.145,-0.03 -0.145,0 -0.25,0.04 -0.1,0.04 -0.2,0.13 z"
         style="font-style:normal;font-variant:normal;font-weight:normal;font-stretch:normal;font-size:medium;line-height:125%;font-family:Inconsolata;-inkscape-font-specification:Inconsolata;letter-spacing:0px;word-spacing:0px;fill:#839496;fill-opacity:1;stroke:none;stroke-width:1px;stroke-linecap:butt;stroke-linejoin:miter;stroke-opacity:1"
         id="path4330"
         inkscape:connector-curvature="0" />
      <path
         d="m 290.43074,221.94422 q 0.305,-0.32 0.815,-0.32 0.42,0 0.66,0.215 0.245,0.21 0.245,0.705 l 0,1.415 -0.34,0 0,-0.25 q -0.365,0.305 -0.82,0.305 -0.18,0 -0.325,-0.055 -0.14,-0.055 -0.24,-0.145 -0.1,-0.09 -0.155,-0.205 -0.05,-0.115 -0.05,-0.23 0,-0.345 0.295,-0.545 0.3,-0.2 0.86,-0.22 l 0.43,0 0,-0.085 q 0,-0.34 -0.145,-0.475 -0.14,-0.135 -0.44,-0.135 -0.37,0 -0.615,0.255 l -0.175,-0.23 z m 1.39,0.945 -0.085,0 q -0.07,0 -0.135,0 -0.06,-0.005 -0.12,-0.005 -0.275,0 -0.45,0.04 -0.175,0.035 -0.275,0.1 -0.1,0.065 -0.14,0.15 -0.035,0.08 -0.035,0.175 0,0.16 0.14,0.275 0.14,0.115 0.345,0.115 0.15,0 0.27,-0.045 0.12,-0.05 0.21,-0.115 0.09,-0.07 0.145,-0.14 0.055,-0.075 0.08,-0.13 0.05,-0.1 0.05,-0.27 l 0,-0.15 z"
         style="font-style:normal;font-variant:normal;font-weight:normal;font-stretch:normal;font-size:medium;line-height:125%;font-family:Inconsolata;-inkscape-font-specification:Inconsolata;letter-spacing:0px;word-spacing:0px;fill:#839496;fill-opacity:1;stroke:none;stroke-width:1px;stroke-linecap:butt;stroke-linejoin:miter;stroke-opacity:1"
         id="path4332"
         inkscape:connector-curvature="0" />
      <path
         d="m 293.41574,221.06422 0.395,-0.065 q 0,0.045 -0.015,0.08 -0.01,0.035 -0.015,0.055 l -0.06,0.54 0.75,0 0,0.295 -0.75,0 q -0.045,0.445 -0.045,0.835 0,0.24 0.01,0.405 0.01,0.165 0.05,0.26 0.045,0.095 0.125,0.15 0.08,0.05 0.215,0.05 0.23,0 0.51,-0.205 l 0.11,0.285 q -0.345,0.255 -0.71,0.255 -0.36,0 -0.525,-0.215 -0.165,-0.22 -0.15,-0.71 0,-0.18 0.01,-0.46 0.01,-0.28 0.04,-0.65 l -0.535,0 0,-0.295 0.55,0 0.04,-0.61 z"
         style="font-style:normal;font-variant:normal;font-weight:normal;font-stretch:normal;font-size:medium;line-height:125%;font-family:Inconsolata;-inkscape-font-specification:Inconsolata;letter-spacing:0px;word-spacing:0px;fill:#839496;fill-opacity:1;stroke:none;stroke-width:1px;stroke-linecap:butt;stroke-linejoin:miter;stroke-opacity:1"
         id="path4334"
         inkscape:connector-curvature="0" />
      <path
         d="m 295.43074,221.94422 q 0.305,-0.32 0.815,-0.32 0.42,0 0.66,0.215 0.245,0.21 0.245,0.705 l 0,1.415 -0.34,0 0,-0.25 q -0.365,0.305 -0.82,0.305 -0.18,0 -0.325,-0.055 -0.14,-0.055 -0.24,-0.145 -0.1,-0.09 -0.155,-0.205 -0.05,-0.115 -0.05,-0.23 0,-0.345 0.295,-0.545 0.3,-0.2 0.86,-0.22 l 0.43,0 0,-0.085 q 0,-0.34 -0.145,-0.475 -0.14,-0.135 -0.44,-0.135 -0.37,0 -0.615,0.255 l -0.175,-0.23 z m 1.39,0.945 -0.085,0 q -0.07,0 -0.135,0 -0.06,-0.005 -0.12,-0.005 -0.275,0 -0.45,0.04 -0.175,0.035 -0.275,0.1 -0.1,0.065 -0.14,0.15 -0.035,0.08 -0.035,0.175 0,0.16 0.14,0.275 0.14,0.115 0.345,0.115 0.15,0 0.27,-0.045 0.12,-0.05 0.21,-0.115 0.09,-0.07 0.145,-0.14 0.055,-0.075 0.08,-0.13 0.05,-0.1 0.05,-0.27 l 0,-0.15 z"
         style="font-style:normal;font-variant:normal;font-weight:normal;font-stretch:normal;font-size:medium;line-height:125%;font-family:Inconsolata;-inkscape-font-specification:Inconsolata;letter-spacing:0px;word-spacing:0px;fill:#839496;fill-opacity:1;stroke:none;stroke-width:1px;stroke-linecap:butt;stroke-linejoin:miter;stroke-opacity:1"
         id="path4336"
         inkscape:connector-curvature="0" />
      <path
         d="m 301.93074,220.84422 0.335,0 -1.74,3.115 -0.32,0 1.725,-3.115 z m -1.815,0.595 q 0,-0.135 0.045,-0.255 0.045,-0.12 0.12,-0.205 0.075,-0.09 0.175,-0.14 0.105,-0.05 0.22,-0.05 0.115,0 0.215,0.05 0.105,0.05 0.18,0.14 0.075,0.09 0.12,0.21 0.045,0.12 0.045,0.255 0,0.285 -0.16,0.47 -0.16,0.18 -0.4,0.18 -0.115,0 -0.22,-0.05 -0.1,-0.05 -0.175,-0.135 -0.075,-0.09 -0.12,-0.21 -0.045,-0.12 -0.045,-0.26 z m 0.805,0 q 0,-0.215 -0.08,-0.3 -0.08,-0.09 -0.175,-0.09 -0.09,0 -0.17,0.09 -0.075,0.085 -0.075,0.3 0,0.21 0.08,0.3 0.08,0.09 0.175,0.09 0.095,0 0.17,-0.085 0.075,-0.09 0.075,-0.305 z m 0.91,1.275 q 0.115,0 0.215,0.05 0.105,0.05 0.18,0.14 0.075,0.09 0.115,0.21 0.045,0.115 0.045,0.25 0,0.135 -0.045,0.255 -0.045,0.12 -0.12,0.205 -0.075,0.085 -0.175,0.135 -0.1,0.05 -0.215,0.05 -0.115,0 -0.22,-0.05 -0.1,-0.05 -0.175,-0.135 -0.075,-0.085 -0.12,-0.205 -0.045,-0.12 -0.045,-0.255 0,-0.135 0.045,-0.255 0.045,-0.12 0.12,-0.205 0.075,-0.09 0.175,-0.14 0.105,-0.05 0.22,-0.05 z m 0.175,0.35 q -0.085,-0.095 -0.18,-0.095 -0.1,0 -0.18,0.09 -0.08,0.09 -0.08,0.3 0,0.215 0.085,0.31 0.085,0.09 0.185,0.09 0.1,0 0.175,-0.095 0.08,-0.095 0.08,-0.295 0,-0.205 -0.085,-0.305 z"
         style="font-style:normal;font-variant:normal;font-weight:normal;font-stretch:normal;font-size:medium;line-height:125%;font-family:Inconsolata;-inkscape-font-specification:Inconsolata;letter-spacing:0px;word-spacing:0px;fill:#cb4b16;fill-opacity:1;stroke:none;stroke-width:1px;stroke-linecap:butt;stroke-linejoin:miter;stroke-opacity:1"
         id="path4338"
         inkscape:connector-curvature="0" />
      <path
         d="m 302.68574,221.47922 0,-0.355 2.12,1.115 0,0.24 -2.13,1.245 0,-0.38 1.745,-0.98 -1.735,-0.885 z"
         style="font-style:normal;font-variant:normal;font-weight:normal;font-stretch:normal;font-size:medium;line-height:125%;font-family:Inconsolata;-inkscape-font-specification:Inconsolata;letter-spacing:0px;word-spacing:0px;fill:#cb4b16;fill-opacity:1;stroke:none;stroke-width:1px;stroke-linecap:butt;stroke-linejoin:miter;stroke-opacity:1"
         id="path4340"
         inkscape:connector-curvature="0" />
      <path
         d="m 306.93074,220.84422 0.335,0 -1.74,3.115 -0.32,0 1.725,-3.115 z m -1.815,0.595 q 0,-0.135 0.045,-0.255 0.045,-0.12 0.12,-0.205 0.075,-0.09 0.175,-0.14 0.105,-0.05 0.22,-0.05 0.115,0 0.215,0.05 0.105,0.05 0.18,0.14 0.075,0.09 0.12,0.21 0.045,0.12 0.045,0.255 0,0.285 -0.16,0.47 -0.16,0.18 -0.4,0.18 -0.115,0 -0.22,-0.05 -0.1,-0.05 -0.175,-0.135 -0.075,-0.09 -0.12,-0.21 -0.045,-0.12 -0.045,-0.26 z m 0.805,0 q 0,-0.215 -0.08,-0.3 -0.08,-0.09 -0.175,-0.09 -0.09,0 -0.17,0.09 -0.075,0.085 -0.075,0.3 0,0.21 0.08,0.3 0.08,0.09 0.175,0.09 0.095,0 0.17,-0.085 0.075,-0.09 0.075,-0.305 z m 0.91,1.275 q 0.115,0 0.215,0.05 0.105,0.05 0.18,0.14 0.075,0.09 0.115,0.21 0.045,0.115 0.045,0.25 0,0.135 -0.045,0.255 -0.045,0.12 -0.12,0.205 -0.075,0.085 -0.175,0.135 -0.1,0.05 -0.215,0.05 -0.115,0 -0.22,-0.05 -0.1,-0.05 -0.175,-0.135 -0.075,-0.085 -0.12,-0.205 -0.045,-0.12 -0.045,-0.255 0,-0.135 0.045,-0.255 0.045,-0.12 0.12,-0.205 0.075,-0.09 0.175,-0.14 0.105,-0.05 0.22,-0.05 z m 0.175,0.35 q -0.085,-0.095 -0.18,-0.095 -0.1,0 -0.18,0.09 -0.08,0.09 -0.08,0.3 0,0.215 0.085,0.31 0.085,0.09 0.185,0.09 0.1,0 0.175,-0.095 0.08,-0.095 0.08,-0.295 0,-0.205 -0.085,-0.305 z"
         style="font-style:normal;font-variant:normal;font-weight:normal;font-stretch:normal;font-size:medium;line-height:125%;font-family:Inconsolata;-inkscape-font-specification:Inconsolata;letter-spacing:0px;word-spacing:0px;fill:#cb4b16;fill-opacity:1;stroke:none;stroke-width:1px;stroke-linecap:butt;stroke-linejoin:miter;stroke-opacity:1"
         id="path4342"
         inkscape:connector-curvature="0" />
      <path
         d="m 293.25074,228.28422 q -0.075,0.075 -0.11,0.165 -0.035,0.09 -0.035,0.19 0,0.1 0.04,0.195 0.04,0.09 0.105,0.16 0.07,0.065 0.16,0.105 0.095,0.04 0.195,0.04 0.105,0 0.195,-0.04 0.09,-0.04 0.16,-0.11 0.07,-0.07 0.11,-0.16 0.04,-0.09 0.04,-0.19 0,-0.1 -0.04,-0.19 -0.04,-0.095 -0.11,-0.165 -0.07,-0.07 -0.165,-0.11 -0.09,-0.04 -0.19,-0.04 -0.205,0 -0.355,0.15 z m 0.92,-0.215 q 0.24,-0.205 0.57,-0.205 l 0.065,0 0.045,0.295 q -0.035,-0.005 -0.07,-0.005 -0.03,-0.005 -0.065,-0.005 -0.22,0 -0.395,0.11 0.115,0.175 0.115,0.385 0,0.16 -0.065,0.305 -0.065,0.14 -0.18,0.25 -0.11,0.105 -0.26,0.17 -0.15,0.06 -0.32,0.06 -0.14,0 -0.29,-0.055 -0.16,0.155 -0.16,0.26 0,0.085 0.095,0.135 0.1,0.045 0.27,0.045 0.095,0 0.19,-0.005 0.1,-0.01 0.185,-0.01 0.225,0 0.385,0.045 0.165,0.04 0.265,0.12 0.1,0.075 0.15,0.18 0.05,0.105 0.05,0.225 0,0.135 -0.065,0.26 -0.065,0.13 -0.195,0.225 -0.13,0.1 -0.33,0.155 -0.195,0.06 -0.46,0.06 -0.275,0 -0.475,-0.045 -0.195,-0.04 -0.315,-0.115 -0.12,-0.075 -0.185,-0.175 -0.06,-0.095 -0.06,-0.205 0,-0.27 0.375,-0.505 -0.185,-0.095 -0.185,-0.315 0,-0.215 0.26,-0.43 -0.16,-0.105 -0.25,-0.27 -0.09,-0.165 -0.09,-0.35 0,-0.17 0.07,-0.315 0.07,-0.15 0.185,-0.26 0.12,-0.11 0.27,-0.17 0.155,-0.065 0.315,-0.065 0.335,0 0.555,0.22 z m -0.89,2.02 q -0.285,0.16 -0.285,0.35 0,0.1 0.055,0.165 0.06,0.07 0.155,0.11 0.1,0.045 0.23,0.065 0.135,0.02 0.28,0.02 0.305,0 0.505,-0.11 0.2,-0.11 0.2,-0.295 -0.01,-0.135 -0.115,-0.21 -0.1,-0.075 -0.32,-0.075 -0.025,0 -0.05,0.005 -0.025,0 -0.05,0 -0.19,0 -0.34,-0.005 -0.15,-0.01 -0.265,-0.02 z"
         style="font-style:normal;font-variant:normal;font-weight:normal;font-stretch:normal;font-size:medium;line-height:125%;font-family:Inconsolata;-inkscape-font-specification:Inconsolata;letter-spacing:0px;word-spacing:0px;fill:#839496;fill-opacity:1;stroke:none;stroke-width:1px;stroke-linecap:butt;stroke-linejoin:miter;stroke-opacity:1"
         id="path4344"
         inkscape:connector-curvature="0" />
      <path
         d="m 295.47074,227.92422 0.375,0 -0.01,0.44 q 0.105,-0.24 0.33,-0.365 0.23,-0.13 0.49,-0.13 0.37,0 0.61,0.25 l -0.165,0.345 q -0.055,-0.075 -0.1,-0.125 -0.045,-0.05 -0.1,-0.085 -0.05,-0.035 -0.115,-0.055 -0.06,-0.02 -0.15,-0.02 -0.165,0 -0.31,0.08 -0.145,0.075 -0.255,0.205 -0.105,0.125 -0.17,0.29 -0.065,0.165 -0.065,0.345 l 0,1.115 -0.365,0 0,-2.29 z"
         style="font-style:normal;font-variant:normal;font-weight:normal;font-stretch:normal;font-size:medium;line-height:125%;font-family:Inconsolata;-inkscape-font-specification:Inconsolata;letter-spacing:0px;word-spacing:0px;fill:#839496;fill-opacity:1;stroke:none;stroke-width:1px;stroke-linecap:butt;stroke-linejoin:miter;stroke-opacity:1"
         id="path4346"
         inkscape:connector-curvature="0" />
      <path
         d="m 298.74574,227.87422 q 0.21,0 0.395,0.085 0.19,0.08 0.33,0.235 0.14,0.155 0.22,0.38 0.085,0.22 0.085,0.495 0,0.28 -0.08,0.5 -0.08,0.22 -0.22,0.38 -0.14,0.155 -0.33,0.24 -0.19,0.08 -0.405,0.08 -0.22,0 -0.415,-0.09 -0.19,-0.09 -0.335,-0.245 -0.145,-0.16 -0.23,-0.38 -0.085,-0.22 -0.085,-0.475 0,-0.255 0.085,-0.48 0.09,-0.225 0.235,-0.38 0.15,-0.16 0.345,-0.25 0.195,-0.095 0.405,-0.095 z m 0.67,1.205 q 0,-0.215 -0.06,-0.38 -0.055,-0.17 -0.15,-0.285 -0.095,-0.115 -0.22,-0.175 -0.12,-0.06 -0.255,-0.06 -0.135,0 -0.26,0.06 -0.12,0.06 -0.215,0.175 -0.09,0.115 -0.145,0.28 -0.055,0.16 -0.055,0.365 0,0.2 0.055,0.365 0.055,0.165 0.145,0.285 0.095,0.12 0.22,0.185 0.125,0.065 0.265,0.065 0.14,0 0.26,-0.055 0.125,-0.06 0.215,-0.17 0.095,-0.115 0.145,-0.28 0.055,-0.165 0.055,-0.375 z"
         style="font-style:normal;font-variant:normal;font-weight:normal;font-stretch:normal;font-size:medium;line-height:125%;font-family:Inconsolata;-inkscape-font-specification:Inconsolata;letter-spacing:0px;word-spacing:0px;fill:#839496;fill-opacity:1;stroke:none;stroke-width:1px;stroke-linecap:butt;stroke-linejoin:miter;stroke-opacity:1"
         id="path4348"
         inkscape:connector-curvature="0" />
      <path
         d="m 300.05574,227.92422 0.365,0 0,0.02 q 0,0.03 -0.01,0.07 -0.01,0.035 -0.01,0.07 0,0.02 0.005,0.03 l 0.335,1.645 0.39,-1.62 0.22,0 0.485,1.615 q 0.065,-0.44 0.105,-0.725 0.045,-0.285 0.065,-0.47 0.025,-0.19 0.03,-0.31 0.01,-0.125 0.01,-0.25 l 0,-0.075 0.335,0 q -0.075,0.58 -0.17,1.15 -0.095,0.57 -0.21,1.14 l -0.34,0 -0.42,-1.48 -0.4,1.48 -0.325,0 -0.46,-2.29 z"
         style="font-style:normal;font-variant:normal;font-weight:normal;font-stretch:normal;font-size:medium;line-height:125%;font-family:Inconsolata;-inkscape-font-specification:Inconsolata;letter-spacing:0px;word-spacing:0px;fill:#839496;fill-opacity:1;stroke:none;stroke-width:1px;stroke-linecap:butt;stroke-linejoin:miter;stroke-opacity:1"
         id="path4350"
         inkscape:connector-curvature="0" />
      <path
         d="m 304.63574,228.22922 -0.21,0.315 q -0.025,-0.005 -0.025,-0.04 0,-0.035 -0.01,-0.05 -0.09,-0.115 -0.255,-0.21 -0.165,-0.1 -0.375,-0.1 -0.095,0 -0.185,0.025 -0.085,0.02 -0.155,0.06 -0.065,0.04 -0.105,0.105 -0.04,0.06 -0.04,0.14 0,0.06 0.03,0.11 0.03,0.045 0.095,0.09 0.065,0.045 0.18,0.09 0.12,0.045 0.31,0.1 0.43,0.115 0.605,0.275 0.18,0.155 0.18,0.385 0,0.15 -0.065,0.285 -0.065,0.135 -0.19,0.235 -0.125,0.1 -0.3,0.16 -0.175,0.055 -0.395,0.055 -0.575,0 -0.965,-0.36 l 0.205,-0.36 q 0.015,0.015 0.02,0.05 0.005,0.03 0.035,0.075 0.03,0.045 0.11,0.105 0.08,0.055 0.245,0.125 0.075,0.035 0.17,0.05 0.095,0.015 0.19,0.015 0.1,0 0.2,-0.025 0.105,-0.025 0.185,-0.07 0.085,-0.05 0.135,-0.115 0.05,-0.07 0.05,-0.155 0,-0.13 -0.12,-0.22 -0.12,-0.09 -0.44,-0.185 -0.22,-0.065 -0.29,-0.09 -0.18,-0.07 -0.26,-0.12 -0.08,-0.055 -0.145,-0.125 -0.065,-0.075 -0.105,-0.165 -0.04,-0.095 -0.04,-0.205 0,-0.12 0.065,-0.23 0.065,-0.11 0.18,-0.195 0.12,-0.085 0.28,-0.135 0.165,-0.055 0.355,-0.055 0.525,0 0.85,0.36 z"
         style="font-style:normal;font-variant:normal;font-weight:normal;font-stretch:normal;font-size:medium;line-height:125%;font-family:Inconsolata;-inkscape-font-specification:Inconsolata;letter-spacing:0px;word-spacing:0px;fill:#839496;fill-opacity:1;stroke:none;stroke-width:1px;stroke-linecap:butt;stroke-linejoin:miter;stroke-opacity:1"
         id="path4352"
         inkscape:connector-curvature="0" />
      <path
         d="m 307.04574,227.19422 -0.055,-0.005 q -0.015,0 -0.045,0.015 -0.44,0.26 -0.685,0.71 -0.245,0.445 -0.245,1.015 0,0.28 0.075,0.555 0.075,0.27 0.215,0.52 0.14,0.245 0.34,0.45 0.205,0.21 0.455,0.355 l -0.16,0.265 q -0.3,-0.155 -0.535,-0.385 -0.235,-0.225 -0.4,-0.505 -0.16,-0.28 -0.25,-0.6 -0.085,-0.325 -0.085,-0.665 0,-0.34 0.085,-0.65 0.09,-0.315 0.255,-0.58 0.165,-0.27 0.395,-0.475 0.235,-0.205 0.53,-0.335 l 0.15,0.305 q -0.03,0.01 -0.04,0.01 z"
         style="font-style:normal;font-variant:normal;font-weight:normal;font-stretch:normal;font-size:medium;line-height:125%;font-family:Inconsolata;-inkscape-font-specification:Inconsolata;letter-spacing:0px;word-spacing:0px;fill:#cb4b16;fill-opacity:1;stroke:none;stroke-width:1px;stroke-linecap:butt;stroke-linejoin:miter;stroke-opacity:1"
         id="path4354"
         inkscape:connector-curvature="0" />
      <path
         d="m 309.05074,227.46922 -0.03,-0.315 q 0,-0.14 0.065,-0.205 0.065,-0.07 0.15,-0.07 0.085,0 0.155,0.075 0.07,0.075 0.07,0.24 0,0.155 -0.17,0.625 l -0.12,0.33 -0.275,-0.065 0.11,-0.34 q 0.045,-0.15 0.045,-0.275 z m -0.86,0 -0.035,-0.315 q 0,-0.14 0.065,-0.205 0.065,-0.07 0.15,-0.07 0.085,0 0.155,0.075 0.07,0.075 0.07,0.24 0,0.17 -0.165,0.625 l -0.12,0.33 -0.28,-0.065 0.11,-0.34 q 0.025,-0.075 0.035,-0.14 0.015,-0.07 0.015,-0.135 z"
         style="font-style:normal;font-variant:normal;font-weight:normal;font-stretch:normal;font-size:medium;line-height:125%;font-family:Inconsolata;-inkscape-font-specification:Inconsolata;letter-spacing:0px;word-spacing:0px;fill:#268bd2;fill-opacity:1;stroke:none;stroke-width:1px;stroke-linecap:butt;stroke-linejoin:miter;stroke-opacity:1"
         id="path4356"
         inkscape:connector-curvature="0" />
      <path
         d="m 310.27574,226.88422 0.42,0 0,0.01 q 0,0.025 -0.03,0.05 -0.025,0.02 -0.025,0.05 l 0,1.28 q 0.11,-0.185 0.295,-0.295 0.19,-0.11 0.385,-0.11 0.19,0 0.36,0.075 0.17,0.07 0.3,0.22 0.13,0.145 0.205,0.365 0.075,0.22 0.075,0.515 0,0.31 -0.085,0.54 -0.08,0.225 -0.215,0.38 -0.135,0.15 -0.305,0.225 -0.17,0.075 -0.35,0.075 -0.21,0 -0.385,-0.095 -0.175,-0.095 -0.29,-0.26 l -0.125,0.3 -0.23,0 0,-3.325 z m 0.625,2.975 q 0.095,0.05 0.17,0.07 0.075,0.015 0.14,0.015 0.1,0 0.22,-0.035 0.12,-0.04 0.22,-0.135 0.105,-0.095 0.17,-0.255 0.07,-0.16 0.07,-0.405 0,-0.455 -0.185,-0.695 -0.185,-0.24 -0.535,-0.24 -0.125,0 -0.265,0.09 -0.14,0.09 -0.205,0.24 -0.06,0.15 -0.06,0.49 0,0.21 0.01,0.355 0.01,0.145 0.04,0.245 0.03,0.095 0.08,0.155 0.05,0.06 0.13,0.105 z"
         style="font-style:normal;font-variant:normal;font-weight:normal;font-stretch:normal;font-size:medium;line-height:125%;font-family:Inconsolata;-inkscape-font-specification:Inconsolata;letter-spacing:0px;word-spacing:0px;fill:#268bd2;fill-opacity:1;stroke:none;stroke-width:1px;stroke-linecap:butt;stroke-linejoin:miter;stroke-opacity:1"
         id="path4358"
         inkscape:connector-curvature="0" />
      <path
         d="m 313.77074,227.86922 q 0.18,0 0.35,0.065 0.17,0.065 0.295,0.2 0.13,0.13 0.205,0.335 0.08,0.205 0.08,0.485 0,0.04 -0.005,0.085 0,0.04 -0.005,0.08 l -1.625,0 q 0.01,0.24 0.08,0.405 0.075,0.16 0.185,0.26 0.11,0.1 0.245,0.145 0.135,0.04 0.27,0.04 0.355,0 0.59,-0.255 l 0.2,0.195 q -0.29,0.35 -0.8,0.35 -0.25,0 -0.46,-0.075 -0.205,-0.08 -0.35,-0.23 -0.145,-0.15 -0.225,-0.37 -0.08,-0.225 -0.08,-0.51 0,-0.29 0.08,-0.515 0.085,-0.225 0.225,-0.375 0.145,-0.155 0.335,-0.235 0.19,-0.08 0.41,-0.08 z m -0.69,0.97 1.255,0 q 0,-0.02 0,-0.035 0.005,-0.02 0.005,-0.045 0,-0.125 -0.05,-0.235 -0.045,-0.115 -0.125,-0.195 -0.08,-0.085 -0.19,-0.135 -0.105,-0.05 -0.23,-0.05 -0.235,0 -0.425,0.17 -0.19,0.165 -0.24,0.525 z"
         style="font-style:normal;font-variant:normal;font-weight:normal;font-stretch:normal;font-size:medium;line-height:125%;font-family:Inconsolata;-inkscape-font-specification:Inconsolata;letter-spacing:0px;word-spacing:0px;fill:#268bd2;fill-opacity:1;stroke:none;stroke-width:1px;stroke-linecap:butt;stroke-linejoin:miter;stroke-opacity:1"
         id="path4360"
         inkscape:connector-curvature="0" />
      <path
         d="m 315.43074,228.19422 q 0.305,-0.32 0.815,-0.32 0.42,0 0.66,0.215 0.245,0.21 0.245,0.705 l 0,1.415 -0.34,0 0,-0.25 q -0.365,0.305 -0.82,0.305 -0.18,0 -0.325,-0.055 -0.14,-0.055 -0.24,-0.145 -0.1,-0.09 -0.155,-0.205 -0.05,-0.115 -0.05,-0.23 0,-0.345 0.295,-0.545 0.3,-0.2 0.86,-0.22 l 0.43,0 0,-0.085 q 0,-0.34 -0.145,-0.475 -0.14,-0.135 -0.44,-0.135 -0.37,0 -0.615,0.255 l -0.175,-0.23 z m 1.39,0.945 -0.085,0 q -0.07,0 -0.135,0 -0.06,-0.005 -0.12,-0.005 -0.275,0 -0.45,0.04 -0.175,0.035 -0.275,0.1 -0.1,0.065 -0.14,0.15 -0.035,0.08 -0.035,0.175 0,0.16 0.14,0.275 0.14,0.115 0.345,0.115 0.15,0 0.27,-0.045 0.12,-0.05 0.21,-0.115 0.09,-0.07 0.145,-0.14 0.055,-0.075 0.08,-0.13 0.05,-0.1 0.05,-0.27 l 0,-0.15 z"
         style="font-style:normal;font-variant:normal;font-weight:normal;font-stretch:normal;font-size:medium;line-height:125%;font-family:Inconsolata;-inkscape-font-specification:Inconsolata;letter-spacing:0px;word-spacing:0px;fill:#268bd2;fill-opacity:1;stroke:none;stroke-width:1px;stroke-linecap:butt;stroke-linejoin:miter;stroke-opacity:1"
         id="path4362"
         inkscape:connector-curvature="0" />
      <path
         d="m 317.97074,227.92422 0.375,0 -0.01,0.44 q 0.105,-0.24 0.33,-0.365 0.23,-0.13 0.49,-0.13 0.37,0 0.61,0.25 l -0.165,0.345 q -0.055,-0.075 -0.1,-0.125 -0.045,-0.05 -0.1,-0.085 -0.05,-0.035 -0.115,-0.055 -0.06,-0.02 -0.15,-0.02 -0.165,0 -0.31,0.08 -0.145,0.075 -0.255,0.205 -0.105,0.125 -0.17,0.29 -0.065,0.165 -0.065,0.345 l 0,1.115 -0.365,0 0,-2.29 z"
         style="font-style:normal;font-variant:normal;font-weight:normal;font-stretch:normal;font-size:medium;line-height:125%;font-family:Inconsolata;-inkscape-font-specification:Inconsolata;letter-spacing:0px;word-spacing:0px;fill:#268bd2;fill-opacity:1;stroke:none;stroke-width:1px;stroke-linecap:butt;stroke-linejoin:miter;stroke-opacity:1"
         id="path4364"
         inkscape:connector-curvature="0" />
      <path
         d="m 321.83074,228.25922 0,-1.375 0.385,0 q 0,0.03 -0.025,0.07 -0.025,0.035 -0.025,0.07 l 0.005,2.975 q 0,0.12 0.025,0.21 l -0.36,0 q -0.02,-0.06 -0.02,-0.17 l 0,-0.195 q -0.11,0.19 -0.3,0.305 -0.19,0.11 -0.385,0.11 -0.19,0 -0.36,-0.075 -0.165,-0.075 -0.295,-0.225 -0.125,-0.15 -0.2,-0.375 -0.075,-0.23 -0.075,-0.54 0,-0.315 0.085,-0.535 0.085,-0.225 0.22,-0.365 0.14,-0.145 0.31,-0.21 0.17,-0.07 0.345,-0.07 0.24,0 0.41,0.11 0.175,0.105 0.26,0.285 z m -1.065,0.07 q -0.215,0.195 -0.215,0.66 0,0.43 0.165,0.695 0.165,0.26 0.485,0.26 0.075,0 0.16,-0.025 0.085,-0.03 0.16,-0.085 0.075,-0.055 0.135,-0.13 0.06,-0.075 0.09,-0.17 0.055,-0.18 0.055,-0.48 0,-0.19 -0.015,-0.315 -0.015,-0.13 -0.05,-0.22 -0.03,-0.09 -0.08,-0.145 -0.05,-0.06 -0.125,-0.105 -0.09,-0.055 -0.17,-0.08 -0.075,-0.03 -0.145,-0.03 -0.145,0 -0.25,0.04 -0.1,0.04 -0.2,0.13 z"
         style="font-style:normal;font-variant:normal;font-weight:normal;font-stretch:normal;font-size:medium;line-height:125%;font-family:Inconsolata;-inkscape-font-specification:Inconsolata;letter-spacing:0px;word-spacing:0px;fill:#268bd2;fill-opacity:1;stroke:none;stroke-width:1px;stroke-linecap:butt;stroke-linejoin:miter;stroke-opacity:1"
         id="path4366"
         inkscape:connector-curvature="0" />
      <path
         d="m 324.05074,227.46922 -0.03,-0.315 q 0,-0.14 0.065,-0.205 0.065,-0.07 0.15,-0.07 0.085,0 0.155,0.075 0.07,0.075 0.07,0.24 0,0.155 -0.17,0.625 l -0.12,0.33 -0.275,-0.065 0.11,-0.34 q 0.045,-0.15 0.045,-0.275 z m -0.86,0 -0.035,-0.315 q 0,-0.14 0.065,-0.205 0.065,-0.07 0.15,-0.07 0.085,0 0.155,0.075 0.07,0.075 0.07,0.24 0,0.17 -0.165,0.625 l -0.12,0.33 -0.28,-0.065 0.11,-0.34 q 0.025,-0.075 0.035,-0.14 0.015,-0.07 0.015,-0.135 z"
         style="font-style:normal;font-variant:normal;font-weight:normal;font-stretch:normal;font-size:medium;line-height:125%;font-family:Inconsolata;-inkscape-font-specification:Inconsolata;letter-spacing:0px;word-spacing:0px;fill:#268bd2;fill-opacity:1;stroke:none;stroke-width:1px;stroke-linecap:butt;stroke-linejoin:miter;stroke-opacity:1"
         id="path4368"
         inkscape:connector-curvature="0" />
      <path
         d="m 325.36574,227.19422 0.095,-0.31 q 0.3,0.14 0.55,0.36 0.25,0.215 0.42,0.49 0.175,0.27 0.27,0.585 0.095,0.31 0.095,0.64 0,0.335 -0.1,0.655 -0.095,0.315 -0.275,0.595 -0.175,0.275 -0.43,0.5 -0.25,0.225 -0.56,0.37 l -0.095,-0.3 q 0.255,-0.135 0.455,-0.33 0.205,-0.19 0.35,-0.425 0.145,-0.24 0.22,-0.505 0.08,-0.265 0.08,-0.545 0,-0.28 -0.08,-0.545 -0.075,-0.265 -0.215,-0.495 -0.14,-0.23 -0.34,-0.42 -0.2,-0.19 -0.44,-0.32 z"
         style="font-style:normal;font-variant:normal;font-weight:normal;font-stretch:normal;font-size:medium;line-height:125%;font-family:Inconsolata;-inkscape-font-specification:Inconsolata;letter-spacing:0px;word-spacing:0px;fill:#cb4b16;fill-opacity:1;stroke:none;stroke-width:1px;stroke-linecap:butt;stroke-linejoin:miter;stroke-opacity:1"
         id="path4370"
         inkscape:connector-curvature="0" />
      <path
         sodipodi:nodetypes="ccccccccscscssccccc"
         inkscape:connector-curvature="0"
         id="path4136-3-3"
         d="m 300.91715,179.76804 c -2.16081,-0.0393 -0.0724,18.75587 0,20.66797 0.0342,0.90401 -4.50762,6.77843 -9.09765,13.48437 0.20497,-0.0226 0.40732,-0.0465 0.61328,-0.0684 1.29286,-0.13664 2.60113,-0.25439 3.8789,-0.34179 1.27776,-0.0874 2.52583,-0.14365 3.69727,-0.15625 1.17144,-0.0126 2.26633,0.0178 3.24023,0.10547 2.8446,0.25632 5.39197,2.33611 8.24805,2.32031 0.65586,-0.004 1.38457,-0.0761 2.15625,-0.19922 0.77168,-0.12312 1.58698,-0.29751 2.41797,-0.50586 0.831,-0.20834 1.67599,-0.44968 2.50977,-0.70898 0.58334,-0.18141 1.15558,-0.37236 1.71679,-0.56446 -4.5365,-6.65626 -9.01172,-12.4664 -9.01172,-13.36523 0,-1.9121 2.08841,-20.70727 0,-20.66797 -2.08841,0.0393 -8.35308,0.0367 -10.36914,0 z m 19.41407,34.08399 c -0.0332,-0.0508 0,0 0,0 z m -28.57813,0.16406 z"
         style="fill:#fdf6e3;fill-opacity:1;fill-rule:evenodd;stroke:#073642;stroke-width:1.46188664;stroke-linecap:butt;stroke-linejoin:miter;stroke-miterlimit:4;stroke-dasharray:none;stroke-opacity:1" />
    </g>
  </g>
</svg>
